<svg xmlns="http://www.w3.org/2000/svg" viewBox="0 0 100 100" width="100" height="100">
  <path fill="#15803d" d="M50 0C22.4 0 0 22.4 0 50s50 50 50 50 50-22.4 50-50S77.6 0 50 0zm0 85c-19.3 0-35-15.7-35-35s15.7-35 35-35 35 15.7 35 35-15.7 35-35 35z"/>
  <path fill="#15803d" d="M50 15C36.2 15 25 26.2 25 40c0 13.8 25 45 25 45s25-31.2 25-45C75 26.2 63.8 15 50 15zm0 20c-3.3 0-6-2.7-6-6s2.7-6 6-6 6 2.7 6 6-2.7 6-6 6z"/>
  <path fill="#ffffff" d="M50 32c-4.4 0-8 3.6-8 8 0 4.4 3.6 8 8 8s8-3.6 8-8c0-4.4-3.6-8-8-8zm0 12c-2.2 0-4-1.8-4-4s1.8-4 4-4 4 1.8 4 4-1.8 4-4 4z"/>
  <path fill="#ffffff" d="M50 25c-2.8 0-5 2.2-5 5s2.2 5 5 5 5-2.2 5-5-2.2-5-5-5z"/>
  <path fill="#ffffff" d="M50 28c-1.1 0-2 .9-2 2s.9 2 2 2 2-.9 2-2-.9-2-2-2z"/>
  <path fill="#ffffff" d="M50,38.5c-1.5,0-2.7-1.2-2.7-2.7s1.2-2.7,2.7-2.7s2.7,1.2,2.7,2.7S51.5,38.5,50,38.5z M50,34.5c-0.6,0-1.1,0.5-1.1,1.1 s0.5,1.1,1.1,1.1s1.1-0.5,1.1-1.1S50.6,34.5,50,34.5z"/>
  <path fill="#ffffff" d="M50 37c-3.9 0-7 3.1-7 7s3.1 7 7 7 7-3.1 7-7-3.1-7-7-7zm0 10c-1.7 0-3-1.3-3-3s1.3-3 3-3 3 1.3 3 3-1.3 3-3 3z"/>
  <path fill="#ffffff" d="M50 40c-2.2 0-4 1.8-4 4s1.8 4 4 4 4-1.8 4-4-1.8-4-4-4z"/>
  <path fill="#ffffff" d="M 50,30 C 45,25 40,25 35,30 C 30,35 30,40 35,45 C 40,50 45,55 50,60 C 55,55 60,50 65,45 C 70,40 70,35 65,30 C 60,25 55,25 50,30 Z" />
</svg>
